<svg width="25" height="19" viewBox="0 0 25 19" fill="none" xmlns="http://www.w3.org/2000/svg">
<path d="M23.4375 3.125H21.875V0.78125C21.875 0.349609 21.5254 0 21.0938 0H16.4062C15.9746 0 15.625 0.349609 15.625 0.78125V3.125H9.375V0.78125C9.375 0.349609 9.02539 0 8.59375 0H3.90625C3.47461 0 3.125 0.349609 3.125 0.78125V3.125H1.5625C0.699707 3.125 0 3.82471 0 4.6875V17.1875C0 18.0503 0.699707 18.75 1.5625 18.75H23.4375C24.3003 18.75 25 18.0503 25 17.1875V4.6875C25 3.82471 24.3003 3.125 23.4375 3.125ZM9.375 9.76562C9.375 9.98145 9.2002 10.1562 8.98438 10.1562H3.51562C3.2998 10.1562 3.125 9.98145 3.125 9.76562V8.98438C3.125 8.76855 3.2998 8.59375 3.51562 8.59375H8.98438C9.2002 8.59375 9.375 8.76855 9.375 8.98438V9.76562ZM21.875 9.76562C21.875 9.98145 21.7002 10.1562 21.4844 10.1562H19.5312V12.1094C19.5312 12.3252 19.3564 12.5 19.1406 12.5H18.3594C18.1436 12.5 17.9688 12.3252 17.9688 12.1094V10.1562H16.0156C15.7998 10.1562 15.625 9.98145 15.625 9.76562V8.98438C15.625 8.76855 15.7998 8.59375 16.0156 8.59375H17.9688V6.64062C17.9688 6.4248 18.1436 6.25 18.3594 6.25H19.1406C19.3564 6.25 19.5312 6.4248 19.5312 6.64062V8.59375H21.4844C21.7002 8.59375 21.875 8.76855 21.875 8.98438V9.76562Z" fill="#F06E33"/>
</svg>
