<svg width="224" height="186" viewBox="0 0 224 186" fill="none" xmlns="http://www.w3.org/2000/svg">
<g clip-path="url(#clip0_5_204)">
<path d="M21.5412 156.689L19.5684 150.247C16.0705 149.02 12.4918 147.957 8.84936 147.064L8.60035 150.057L7.59049 146.759C3.07318 145.69 0 145.22 0 145.22C0 145.22 4.1501 158.288 12.8575 168.279L23.0024 169.754L15.1211 170.695C16.2164 171.786 17.3935 172.819 18.6454 173.788C31.3108 183.52 45.4178 187.986 50.1541 183.761C54.8903 179.537 48.4624 168.223 35.7971 158.491C31.8707 155.473 26.9384 153.052 22.001 151.146L21.5412 156.689Z" fill="#F2F2F2"/>
<path d="M40.3027 149.692L42.6358 143.334C40.4079 140.787 38.0083 138.345 35.4483 136.021L33.366 138.478L34.5605 135.222C31.3604 132.375 29.0234 130.657 29.0234 130.657C29.0234 130.657 24.4177 143.62 25.6326 155.899L33.3961 161.503L26.0606 158.936C26.3173 160.339 26.6802 161.727 27.1474 163.092C31.9128 176.844 41.201 186.703 47.8929 185.114C54.5848 183.524 56.1468 171.088 51.3814 157.336C49.9042 153.073 47.1934 148.89 44.1569 145.145L40.3027 149.692Z" fill="#F2F2F2"/>
<path d="M156.306 44.0635H155.075V16.1539C155.075 14.0326 154.571 11.932 153.59 9.9721C152.61 8.01221 151.172 6.23141 149.36 4.73138C147.548 3.23135 145.397 2.04146 143.03 1.22964C140.663 0.417833 138.125 0 135.563 0H64.1369C58.9619 0 53.9989 1.70193 50.3396 4.73138C46.6803 7.76083 44.6245 11.8696 44.6245 16.1539V169.271C44.6245 171.392 45.1292 173.493 46.1098 175.453C47.0904 177.412 48.5277 179.193 50.3396 180.693C52.1515 182.193 54.3025 183.383 56.6699 184.195C59.0372 185.007 61.5745 185.425 64.1369 185.425H135.563C140.738 185.425 145.701 183.723 149.36 180.693C153.019 177.664 155.075 173.555 155.075 169.271V63.9301H156.306L156.306 44.0635Z" fill="#E6E6E6"/>
<path d="M136.35 4.20113H127.028C127.456 5.07142 127.62 6.01567 127.504 6.95067C127.388 7.88567 126.996 8.78272 126.363 9.5628C125.73 10.3429 124.874 10.982 123.872 11.424C122.87 11.8659 121.752 12.097 120.617 12.097H79.698C78.5627 12.0969 77.4449 11.8657 76.443 11.4238C75.4411 10.9818 74.5858 10.3427 73.9525 9.56259C73.3193 8.78253 72.9275 7.8855 72.8116 6.95055C72.6958 6.01559 72.8594 5.07139 73.2882 4.20113H64.5802C60.7155 4.20113 57.0092 5.47211 54.2764 7.73448C51.5437 9.99684 50.0085 13.0653 50.0085 16.2647V169.159C50.0085 172.359 51.5437 175.427 54.2764 177.689C57.0092 179.952 60.7155 181.223 64.5802 181.223H136.35C140.215 181.223 143.921 179.952 146.654 177.689C149.387 175.427 150.922 172.359 150.922 169.159V16.2645C150.922 13.0651 149.387 9.9967 146.654 7.73439C143.921 5.47207 140.215 4.20113 136.35 4.20113Z" fill="white"/>
<path d="M91.3198 65.1065C91.3196 64.0378 91.6594 62.9879 92.3051 62.0624C92.9507 61.137 93.8795 60.3686 94.9978 59.8348C93.88 59.3003 92.612 59.0189 91.3212 59.0188C90.0304 59.0187 88.7623 59.2999 87.6444 59.8341C86.5265 60.3684 85.5981 61.1368 84.9527 62.0623C84.3073 62.9877 83.9675 64.0375 83.9675 65.1061C83.9675 66.1747 84.3073 67.2245 84.9527 68.15C85.5981 69.0754 86.5265 69.8439 87.6444 70.3781C88.7623 70.9124 90.0304 71.1936 91.3212 71.1934C92.612 71.1933 93.88 70.9119 94.9978 70.3774C93.8795 69.8437 92.9508 69.0755 92.3052 68.1502C91.6595 67.2249 91.3197 66.1751 91.3198 65.1065Z" fill="#CCCCCC"/>
<path d="M100.563 65.1065C100.563 64.0378 100.903 62.9878 101.549 62.0624C102.194 61.1369 103.123 60.3686 104.241 59.8348C103.124 59.3003 101.856 59.0189 100.565 59.0188C99.2741 59.0187 98.006 59.2999 96.8881 59.8341C95.7702 60.3684 94.8418 61.1368 94.1964 62.0623C93.5509 62.9877 93.2111 64.0375 93.2111 65.1061C93.2111 66.1747 93.5509 67.2245 94.1964 68.15C94.8418 69.0754 95.7702 69.8439 96.8881 70.3781C98.006 70.9124 99.2741 71.1936 100.565 71.1934C101.856 71.1933 103.124 70.9119 104.241 70.3774C103.123 69.8437 102.194 69.0755 101.549 68.1502C100.903 67.2249 100.563 66.1751 100.563 65.1065Z" fill="#CCCCCC"/>
<path d="M109.597 71.1936C113.658 71.1936 116.95 68.4682 116.95 65.1062C116.95 61.7443 113.658 59.0189 109.597 59.0189C105.536 59.0189 102.244 61.7443 102.244 65.1062C102.244 68.4682 105.536 71.1936 109.597 71.1936Z" fill="#F06E33"/>
<path d="M121.886 84.1194H79.0313C78.6233 84.119 78.2322 83.9846 77.9437 83.7458C77.6552 83.507 77.4929 83.1831 77.4924 82.8454V47.3671C77.4929 47.0293 77.6552 46.7055 77.9437 46.4667C78.2322 46.2279 78.6233 46.0935 79.0313 46.0931H121.886C122.294 46.0935 122.685 46.2279 122.973 46.4667C123.262 46.7055 123.424 47.0293 123.425 47.3671V82.8454C123.424 83.1831 123.262 83.507 122.973 83.7458C122.685 83.9846 122.294 84.119 121.886 84.1194ZM79.0313 46.603C78.7865 46.6032 78.5518 46.6838 78.3787 46.8271C78.2056 46.9704 78.1083 47.1647 78.108 47.3674V82.8456C78.1083 83.0483 78.2056 83.2426 78.3787 83.3859C78.5518 83.5292 78.7865 83.6098 79.0313 83.61H121.886C122.13 83.6098 122.365 83.5292 122.538 83.3859C122.711 83.2426 122.809 83.0483 122.809 82.8456V47.3674C122.809 47.1647 122.711 46.9704 122.538 46.8271C122.365 46.6838 122.13 46.6032 121.886 46.603H79.0313Z" fill="#CCCCCC"/>
<path d="M131.454 111.315H65.7287V111.825H131.454V111.315Z" fill="#CCCCCC"/>
<path d="M67.8044 108.133C68.9507 108.133 69.88 107.364 69.88 106.415C69.88 105.466 68.9507 104.696 67.8044 104.696C66.658 104.696 65.7287 105.466 65.7287 106.415C65.7287 107.364 66.658 108.133 67.8044 108.133Z" fill="#F06E33"/>
<path d="M131.454 128.498H65.7287V129.008H131.454V128.498Z" fill="#CCCCCC"/>
<path d="M67.8044 125.316C68.9507 125.316 69.88 124.547 69.88 123.598C69.88 122.649 68.9507 121.88 67.8044 121.88C66.658 121.88 65.7287 122.649 65.7287 123.598C65.7287 124.547 66.658 125.316 67.8044 125.316Z" fill="#F06E33"/>
<path d="M130.252 148.065H109.48C109.122 148.065 108.778 147.947 108.524 147.737C108.27 147.527 108.128 147.242 108.127 146.945V140.918C108.128 140.621 108.27 140.336 108.524 140.126C108.778 139.916 109.122 139.798 109.48 139.797H130.252C130.61 139.798 130.954 139.916 131.208 140.126C131.462 140.336 131.605 140.621 131.605 140.918V146.945C131.604 147.242 131.462 147.527 131.208 147.737C130.954 147.947 130.61 148.065 130.252 148.065Z" fill="#F06E33"/>
<path d="M74.575 108.133C75.7214 108.133 76.6507 107.364 76.6507 106.415C76.6507 105.466 75.7214 104.696 74.575 104.696C73.4287 104.696 72.4994 105.466 72.4994 106.415C72.4994 107.364 73.4287 108.133 74.575 108.133Z" fill="#F06E33"/>
<path d="M81.3457 108.133C82.4921 108.133 83.4214 107.364 83.4214 106.415C83.4214 105.466 82.4921 104.696 81.3457 104.696C80.1994 104.696 79.2701 105.466 79.2701 106.415C79.2701 107.364 80.1994 108.133 81.3457 108.133Z" fill="#F06E33"/>
<path d="M74.575 125.316C75.7214 125.316 76.6507 124.547 76.6507 123.598C76.6507 122.649 75.7214 121.88 74.575 121.88C73.4287 121.88 72.4994 122.649 72.4994 123.598C72.4994 124.547 73.4287 125.316 74.575 125.316Z" fill="#F06E33"/>
<path d="M81.3457 125.316C82.4921 125.316 83.4214 124.547 83.4214 123.598C83.4214 122.649 82.4921 121.88 81.3457 121.88C80.1994 121.88 79.2701 122.649 79.2701 123.598C79.2701 124.547 80.1994 125.316 81.3457 125.316Z" fill="#F06E33"/>
<path d="M223.163 186H7.24167C6.77945 186 6.40503 185.864 6.40503 185.697C6.40503 185.529 6.77945 185.393 7.24167 185.393H223.163C223.625 185.393 224 185.529 224 185.697C224 185.864 223.625 186 223.163 186Z" fill="#3F3D56"/>
<path d="M169.817 121.861C169.964 121.917 170.106 121.983 170.241 122.057L183.729 117.291L184.211 114.35L189.6 114.322L189.282 121.069L171.479 124.967C171.441 125.069 171.396 125.17 171.344 125.268C171.087 125.722 170.673 126.104 170.154 126.365C169.636 126.625 169.036 126.753 168.43 126.732C167.824 126.712 167.239 126.543 166.748 126.248C166.257 125.953 165.883 125.544 165.672 125.073C165.461 124.602 165.422 124.091 165.561 123.602C165.701 123.113 166.011 122.669 166.454 122.326C166.897 121.983 167.452 121.756 168.05 121.673C168.649 121.59 169.263 121.656 169.817 121.861Z" fill="#FFB8B8"/>
<path d="M191.561 182.998H187.874L186.12 171.225L191.561 171.225L191.561 182.998Z" fill="#FFB8B8"/>
<path d="M185.24 182.126H192.35V185.833H180.763C180.763 184.85 181.235 183.907 182.074 183.212C182.914 182.517 184.053 182.126 185.24 182.126Z" fill="#2F2E41"/>
<path d="M205.9 182.136L202.23 182.435L199.09 170.861L204.506 170.419L205.9 182.136Z" fill="#FFB8B8"/>
<path d="M199.506 181.781L206.583 181.204L207.021 184.893L195.49 185.833C195.432 185.348 195.49 184.859 195.661 184.394C195.832 183.928 196.111 183.494 196.484 183.118C196.857 182.742 197.316 182.43 197.835 182.201C198.353 181.971 198.921 181.829 199.506 181.781Z" fill="#2F2E41"/>
<path d="M192.587 101.862C196.666 101.862 199.973 99.1246 199.973 95.7474C199.973 92.3702 196.666 89.6325 192.587 89.6325C188.508 89.6325 185.201 92.3702 185.201 95.7474C185.201 99.1246 188.508 101.862 192.587 101.862Z" fill="#FFB8B8"/>
<path d="M187.05 180.617C186.733 180.618 186.426 180.526 186.183 180.358C185.94 180.189 185.777 179.955 185.722 179.697C183.814 170.927 177.576 142.251 177.427 141.456C177.423 141.438 177.422 141.419 177.422 141.401V139.263C177.422 139.185 177.451 139.109 177.506 139.046L178.33 138.09C178.369 138.044 178.42 138.006 178.48 137.979C178.54 137.952 178.606 137.937 178.674 137.935C183.372 137.752 198.758 137.218 199.501 137.987C200.248 138.759 199.984 141.101 199.924 141.562L199.927 141.61L206.839 178.208C206.893 178.499 206.806 178.797 206.597 179.036C206.388 179.276 206.074 179.437 205.722 179.486L201.404 180.075C201.083 180.118 200.753 180.063 200.476 179.922C200.199 179.781 199.992 179.562 199.893 179.305C198.558 175.772 194.08 163.889 192.528 159.291C192.519 159.262 192.497 159.237 192.466 159.22C192.436 159.203 192.399 159.197 192.363 159.201C192.327 159.205 192.293 159.22 192.27 159.243C192.246 159.266 192.233 159.295 192.234 159.325C192.311 163.709 192.498 174.892 192.563 178.754L192.57 179.17C192.573 179.452 192.448 179.724 192.22 179.933C191.992 180.142 191.678 180.273 191.339 180.3L187.176 180.613C187.134 180.616 187.091 180.617 187.05 180.617Z" fill="#2F2E41"/>
<path d="M187.899 104.267C186.61 104.901 185.839 106.067 185.396 107.253C184.577 109.449 184.083 111.72 183.927 114.015L183.46 120.887L177.669 139.104C182.688 142.62 185.583 141.821 192.339 138.945C199.095 136.069 199.867 139.904 199.867 139.904L201.218 124.403L203.148 107.465C202.715 107.033 202.224 106.643 201.686 106.301C199.902 105.153 197.826 104.355 195.615 103.967C193.404 103.579 191.116 103.611 188.922 104.062L187.899 104.267Z" fill="#F06E33"/>
<path d="M186.018 125.541C186.174 125.589 186.325 125.648 186.47 125.716L199.807 120.189L200.028 117.195L205.529 116.881L205.824 123.706L188.001 128.586C187.856 129.103 187.523 129.571 187.049 129.927C186.574 130.284 185.98 130.513 185.345 130.583C184.709 130.653 184.063 130.561 183.492 130.32C182.921 130.079 182.453 129.7 182.149 129.232C181.845 128.765 181.719 128.233 181.79 127.705C181.86 127.178 182.123 126.681 182.543 126.28C182.963 125.879 183.521 125.594 184.141 125.462C184.762 125.33 185.417 125.357 186.018 125.541Z" fill="#FFB8B8"/>
<path d="M203.051 107.543C206.333 108.502 206.911 118.889 206.911 118.889C203.05 117.131 198.418 120.008 198.418 120.008C198.418 120.008 197.453 117.291 196.295 113.776C195.945 112.787 195.903 111.741 196.173 110.735C196.443 109.729 197.016 108.796 197.839 108.023C197.839 108.023 199.77 106.583 203.051 107.543Z" fill="#F06E33"/>
<path d="M199.21 97.3646C198.29 96.755 197.034 97.863 197.034 97.863L196.298 92.3773C196.298 92.3773 191.696 92.8336 188.751 92.225C185.806 91.6164 185.346 94.4346 185.346 94.4346C185.194 93.2962 185.163 92.149 185.254 91.0061C185.438 89.6347 187.831 88.2632 192.064 87.3489C196.298 86.4345 198.506 90.3965 198.506 90.3965C201.451 91.6154 200.13 97.9742 199.21 97.3646Z" fill="#2F2E41"/>
</g>
<defs>
<clipPath id="clip0_5_204">
<rect width="224" height="186" fill="white"/>
</clipPath>
</defs>
</svg>
