<?xml version="1.0" encoding="utf-8"?>
<!-- Svg Vector Icons : http://www.onlinewebfonts.com/icon -->
<!DOCTYPE svg PUBLIC "-//W3C//DTD SVG 1.1//EN" "http://www.w3.org/Graphics/SVG/1.1/DTD/svg11.dtd">
<svg version="1.1" xmlns="http://www.w3.org/2000/svg" xmlns:xlink="http://www.w3.org/1999/xlink" x="0px" y="0px" viewBox="0 0 256 256" enable-background="new 0 0 256 256" xml:space="preserve">
<metadata> Svg Vector Icons : http://www.onlinewebfonts.com/icon </metadata>
<g><g><path fill="#000000" d="M122.9,11c2.7-1.4,7.1-1.4,9.8,0l93.1,47.3c4.4,2.2,4.4,5.8,0,8l-93.1,47.3c-2.7,1.4-7.1,1.4-9.8,0L29.8,66.3c-4.4-2.2-4.4-5.8,0-8L122.9,11z M138.3,142.8c0-4.9,3.6-10.6,7.9-12.7l79.9-38.8c4.4-2.1,7.9,0.1,7.9,5v99c0,4.9-3.6,10.5-8,12.6l-79.8,37.4c-4.4,2.1-8-0.2-8-5.1V142.8z M117.7,142.8c0-4.9-3.6-10.6-7.9-12.7L29.8,91.2c-4.4-2.1-7.9,0.1-7.9,5v99c0,4.9,3.6,10.5,8,12.6l79.8,37.4c4.4,2.1,8-0.2,8-5.1L117.7,142.8L117.7,142.8z"/></g></g>
</svg>