<svg width="257" height="213" viewBox="0 0 257 213" fill="none" xmlns="http://www.w3.org/2000/svg">
<g clip-path="url(#clip0_4_32)">
<path d="M132.902 0H58.2216C46.6066 0 37.1907 9.39168 37.1907 20.9769V191.191C37.1907 202.776 46.6066 212.168 58.2216 212.168H132.902C144.517 212.168 153.932 202.776 153.932 191.191V20.9769C153.932 9.39168 144.517 0 132.902 0Z" fill="#3F3D56"/>
<path d="M151.963 20.9783V191.191C151.957 196.232 149.947 201.065 146.373 204.629C142.8 208.194 137.955 210.199 132.901 210.204H58.2223C53.1686 210.199 48.3235 208.194 44.75 204.629C41.1765 201.065 39.1663 196.232 39.1605 191.191V20.9783C39.1663 15.9376 41.1765 11.1049 44.75 7.54057C48.3235 3.97621 53.1686 1.97118 58.2223 1.96535H67.9878V5.33004C67.9879 6.85329 68.5946 8.31413 69.6744 9.39123C70.7543 10.4683 72.2189 11.0735 73.7461 11.0736H117.377C118.905 11.0735 120.369 10.4683 121.449 9.39123C122.529 8.31413 123.136 6.85329 123.136 5.33004V1.96535H132.901C137.955 1.97118 142.8 3.97621 146.373 7.54057C149.947 11.1049 151.957 15.9376 151.963 20.9783Z" fill="white"/>
<path d="M120.013 93.6264C115.684 91.6798 110.858 96.0863 114.069 100.21C103.22 110.067 87.11 113.535 73.0847 109.412C72.7387 110.244 72.375 111.067 72.0024 111.89C66.429 124.201 58.4454 135.278 48.5205 144.469C61.5877 133.63 77.6888 142.788 91.5367 146.354C92.4791 146.515 93.3541 146.946 94.0547 147.595C94.7553 148.244 95.2512 149.083 95.4818 150.008C95.7123 150.933 95.6676 151.906 95.3529 152.806C95.0383 153.707 94.4675 154.497 93.7102 155.079C91.9462 154.427 90.1216 153.953 88.2633 153.663C87.3865 153.53 86.49 153.672 85.6971 154.068C84.9042 154.464 84.2539 155.096 83.8357 155.876C83.4174 156.656 83.2518 157.546 83.3616 158.423C83.4713 159.301 83.8511 160.123 84.4487 160.777C69.9443 167.714 51.9004 165.157 39.4541 155.194V149.274C52.6282 139.184 63.1366 126.042 70.0685 110.987C72.5052 105.699 74.4761 100.21 75.959 94.5821C77.5794 88.4264 78.5779 82.1244 78.9397 75.7703C76.5533 68.7535 76.9525 60.5156 80.9268 54.1448C82.568 57.1178 87.2963 57.8876 87.793 53.7643C87.8995 52.1008 87.9794 50.4373 88.0769 48.7826C105.899 47.4112 102.856 72.3018 81.051 76.195C80.6258 82.5885 79.586 88.9265 77.9461 95.1218C77.7953 95.7412 77.6267 96.3517 77.4493 96.9623C81.4343 91.5319 86.6546 87.1225 92.6811 84.0967C98.4385 81.4067 105.145 80.8316 111.541 79.7963C119.321 78.531 124.83 87.3971 120.013 93.6264Z" fill="#F2F2F2"/>
<path d="M36.6536 43.0408C36.2738 43.0404 35.9097 42.8897 35.6412 42.6219C35.3726 42.354 35.2216 41.9909 35.2212 41.6121V38.7546C35.2212 38.3757 35.3721 38.0123 35.6407 37.7443C35.9093 37.4764 36.2737 37.3259 36.6536 37.3259C37.0335 37.3259 37.3978 37.4764 37.6664 37.7443C37.9351 38.0123 38.086 38.3757 38.086 38.7546V41.6121C38.0856 41.9909 37.9345 42.354 37.666 42.6219C37.3974 42.8897 37.0333 43.0404 36.6536 43.0408Z" fill="#3F3D56"/>
<path d="M36.6536 57.6931C36.2738 57.6927 35.9097 57.542 35.6412 57.2741C35.3726 57.0063 35.2216 56.6431 35.2212 56.2644V48.3986C35.2212 48.0197 35.3721 47.6563 35.6407 47.3883C35.9093 47.1204 36.2737 46.9699 36.6536 46.9699C37.0335 46.9699 37.3978 47.1204 37.6664 47.3883C37.9351 47.6563 38.086 48.0197 38.086 48.3986V56.2644C38.0856 56.6431 37.9345 57.0063 37.666 57.2741C37.3974 57.542 37.0333 57.6927 36.6536 57.6931Z" fill="#3F3D56"/>
<path d="M36.6536 69.4725C36.2738 69.4721 35.9097 69.3214 35.6412 69.0536C35.3726 68.7857 35.2216 68.4226 35.2212 68.0438V60.178C35.2212 59.7991 35.3721 59.4357 35.6407 59.1678C35.9093 58.8998 36.2737 58.7493 36.6536 58.7493C37.0335 58.7493 37.3978 58.8998 37.6664 59.1678C37.9351 59.4357 38.086 59.7991 38.086 60.178V68.0438C38.0856 68.4226 37.9345 68.7857 37.666 69.0536C37.3974 69.3214 37.0333 69.4721 36.6536 69.4725Z" fill="#3F3D56"/>
<path d="M154.111 63.0432C153.732 63.0428 153.368 62.8921 153.099 62.6242C152.831 62.3564 152.679 61.9932 152.679 61.6145V42.4217C152.679 42.0428 152.83 41.6793 153.099 41.4114C153.367 41.1435 153.732 40.9929 154.111 40.9929C154.491 40.9929 154.856 41.1435 155.124 41.4114C155.393 41.6793 155.544 42.0428 155.544 42.4217V61.6145C155.543 61.9932 155.392 62.3564 155.124 62.6242C154.855 62.8921 154.491 63.0428 154.111 63.0432Z" fill="#3F3D56"/>
<path d="M98.6386 6.55285H87.5374C87.2999 6.55285 87.0722 6.45877 86.9043 6.2913C86.7364 6.12384 86.6421 5.89671 86.6421 5.65989C86.6421 5.42306 86.7364 5.19593 86.9043 5.02847C87.0722 4.861 87.2999 4.76692 87.5374 4.76692H98.6386C98.876 4.76692 99.1037 4.861 99.2716 5.02847C99.4395 5.19593 99.5338 5.42306 99.5338 5.65989C99.5338 5.89671 99.4395 6.12384 99.2716 6.2913C99.1037 6.45877 98.876 6.55285 98.6386 6.55285Z" fill="white"/>
<path d="M104.368 6.37425C104.764 6.37425 105.084 6.05442 105.084 5.65988C105.084 5.26535 104.764 4.94551 104.368 4.94551C103.973 4.94551 103.652 5.26535 103.652 5.65988C103.652 6.05442 103.973 6.37425 104.368 6.37425Z" fill="white"/>
<path d="M71.1626 53.767H58.7248C57.0031 53.7651 55.3525 53.0821 54.1351 51.8678C52.9177 50.6535 52.2329 49.0072 52.231 47.2899V34.884C52.2329 33.1668 52.9177 31.5204 54.1351 30.3061C55.3525 29.0919 57.0031 28.4088 58.7248 28.4069H71.1626C72.8842 28.4088 74.5348 29.0918 75.7522 30.3061C76.9696 31.5204 77.6544 33.1668 77.6563 34.884V47.2899C77.6544 49.0072 76.9696 50.6535 75.7522 51.8678C74.5348 53.0821 72.8842 53.7651 71.1626 53.767ZM58.7248 29.1213C57.193 29.123 55.7245 29.7307 54.6414 30.8111C53.5582 31.8914 52.949 33.3562 52.9472 34.884V47.2899C52.949 48.8177 53.5582 50.2825 54.6414 51.3629C55.7245 52.4432 57.193 53.0509 58.7248 53.0527H71.1626C72.6943 53.0509 74.1628 52.4432 75.246 51.3629C76.3291 50.2825 76.9384 48.8177 76.9401 47.2899V34.884C76.9384 33.3562 76.3291 31.8914 75.246 30.8111C74.1628 29.7307 72.6943 29.123 71.1626 29.1212L58.7248 29.1213Z" fill="#E6E6E6"/>
<path d="M101.78 53.9456H89.3426C87.6209 53.9437 85.9703 53.2607 84.753 52.0464C83.5356 50.8321 82.8508 49.1857 82.8488 47.4685V35.0626C82.8508 33.3453 83.5356 31.699 84.753 30.4847C85.9703 29.2704 87.6209 28.5874 89.3426 28.5855H101.78C103.502 28.5874 105.153 29.2704 106.37 30.4847C107.587 31.699 108.272 33.3453 108.274 35.0626V47.4685C108.272 49.1857 107.587 50.8321 106.37 52.0464C105.153 53.2607 103.502 53.9437 101.78 53.9456ZM89.3426 29.2998C87.8108 29.3016 86.3423 29.9093 85.2592 30.9896C84.1761 32.07 83.5668 33.5347 83.565 35.0626V47.4685C83.5668 48.9963 84.1761 50.4611 85.2592 51.5414C86.3423 52.6218 87.8108 53.2295 89.3426 53.2312H101.78C103.312 53.2295 104.781 52.6218 105.864 51.5414C106.947 50.4611 107.556 48.9963 107.558 47.4685V35.0626C107.556 33.5347 106.947 32.07 105.864 30.9896C104.781 29.9093 103.312 29.3016 101.78 29.2998L89.3426 29.2998Z" fill="#E6E6E6"/>
<path d="M132.398 54.1242H119.96C118.239 54.1223 116.588 53.4392 115.371 52.225C114.153 51.0107 113.469 49.3643 113.467 47.6471V35.2412C113.469 33.5239 114.153 31.8776 115.371 30.6633C116.588 29.449 118.239 28.766 119.96 28.7641H132.398C134.12 28.766 135.77 29.449 136.988 30.6633C138.205 31.8776 138.89 33.5239 138.892 35.2412V47.6471C138.89 49.3643 138.205 51.0107 136.988 52.225C135.77 53.4392 134.12 54.1223 132.398 54.1242ZM119.96 29.4784C118.429 29.4802 116.96 30.0879 115.877 31.1682C114.794 32.2486 114.185 33.7133 114.183 35.2412V47.6471C114.185 49.1749 114.794 50.6397 115.877 51.72C116.96 52.8004 118.429 53.4081 119.96 53.4098H132.398C133.93 53.4081 135.399 52.8004 136.482 51.7201C137.565 50.6397 138.174 49.1749 138.176 47.6471V35.2412C138.174 33.7133 137.565 32.2485 136.482 31.1682C135.399 30.0878 133.93 29.4801 132.398 29.4784L119.96 29.4784Z" fill="#E6E6E6"/>
<path d="M71.1626 89.1284H58.7248C57.0031 89.1264 55.3525 88.4434 54.1351 87.2291C52.9177 86.0149 52.2329 84.3685 52.231 82.6513V70.2453C52.2329 68.5281 52.9177 66.8817 54.1351 65.6675C55.3525 64.4532 57.0031 63.7702 58.7248 63.7682H71.1626C72.8842 63.7702 74.5348 64.4532 75.7522 65.6675C76.9696 66.8817 77.6544 68.5281 77.6563 70.2453V82.6512C77.6544 84.3685 76.9696 86.0149 75.7522 87.2291C74.5348 88.4434 72.8842 89.1264 71.1626 89.1284ZM58.7248 64.4826C57.193 64.4843 55.7245 65.0921 54.6414 66.1724C53.5582 67.2527 52.949 68.7175 52.9472 70.2453V82.6512C52.949 84.1791 53.5582 85.6438 54.6414 86.7242C55.7245 87.8045 57.193 88.4122 58.7248 88.414H71.1626C72.6943 88.4122 74.1628 87.8045 75.246 86.7242C76.3291 85.6438 76.9384 84.1791 76.9401 82.6512V70.2453C76.9384 68.7175 76.3291 67.2527 75.246 66.1724C74.1628 65.092 72.6943 64.4843 71.1626 64.4826L58.7248 64.4826Z" fill="#E6E6E6"/>
<path d="M101.78 89.307H89.3426C87.6209 89.305 85.9703 88.622 84.753 87.4077C83.5356 86.1934 82.8508 84.5471 82.8488 82.8298V70.4239C82.8508 68.7067 83.5356 67.0603 84.753 65.846C85.9703 64.6318 87.6209 63.9487 89.3426 63.9468H101.78C103.502 63.9487 105.153 64.6318 106.37 65.846C107.587 67.0603 108.272 68.7067 108.274 70.4239V82.8298C108.272 84.5471 107.587 86.1934 106.37 87.4077C105.153 88.622 103.502 89.305 101.78 89.307ZM89.3426 64.6612C87.8108 64.6629 86.3423 65.2706 85.2592 66.351C84.1761 67.4313 83.5668 68.8961 83.565 70.4239V82.8298C83.5668 84.3577 84.1761 85.8224 85.2592 86.9028C86.3423 87.9831 87.8108 88.5908 89.3426 88.5926H101.78C103.312 88.5908 104.781 87.9831 105.864 86.9028C106.947 85.8224 107.556 84.3577 107.558 82.8298V70.4239C107.556 68.8961 106.947 67.4313 105.864 66.351C104.781 65.2706 103.312 64.6629 101.78 64.6612L89.3426 64.6612Z" fill="#E6E6E6"/>
<path d="M132.398 89.4856H119.96C118.239 89.4836 116.588 88.8006 115.371 87.5863C114.153 86.372 113.469 84.7257 113.467 83.0084V70.6025C113.469 68.8853 114.153 67.2389 115.371 66.0246C116.588 64.8104 118.239 64.1273 119.96 64.1254H132.398C134.12 64.1273 135.77 64.8104 136.988 66.0246C138.205 67.2389 138.89 68.8853 138.892 70.6025V83.0084C138.89 84.7257 138.205 86.372 136.988 87.5863C135.77 88.8006 134.12 89.4836 132.398 89.4856ZM119.96 64.8398C118.429 64.8415 116.96 65.4492 115.877 66.5296C114.794 67.6099 114.185 69.0747 114.183 70.6025V83.0084C114.185 84.5363 114.794 86.001 115.877 87.0814C116.96 88.1617 118.429 88.7694 119.96 88.7712H132.398C133.93 88.7694 135.399 88.1617 136.482 87.0814C137.565 86.001 138.174 84.5363 138.176 83.0084V70.6025C138.174 69.0747 137.565 67.6099 136.482 66.5295C135.399 65.4492 133.93 64.8415 132.398 64.8398L119.96 64.8398Z" fill="#E6E6E6"/>
<path d="M71.1626 196.284H58.7248C57.0981 196.282 55.5385 195.637 54.3883 194.49C53.238 193.342 52.591 191.787 52.5892 190.164V177.758C52.591 176.136 53.238 174.58 54.3883 173.433C55.5385 172.285 57.0981 171.64 58.7248 171.638H71.1626C72.7894 171.64 74.3489 172.285 75.4992 173.433C76.6495 174.58 77.2965 176.136 77.2983 177.758V190.164C77.2965 191.787 76.6495 193.342 75.4992 194.49C74.3489 195.637 72.7894 196.282 71.1626 196.284Z" fill="#F06E33"/>
<path d="M101.78 196.463H89.3427C87.7159 196.461 86.1564 195.815 85.0061 194.668C83.8558 193.521 83.2088 191.965 83.207 190.343V177.937C83.2088 176.314 83.8558 174.759 85.0061 173.611C86.1564 172.464 87.7159 171.819 89.3427 171.817H101.78C103.407 171.819 104.967 172.464 106.117 173.611C107.267 174.759 107.914 176.314 107.916 177.937V190.343C107.914 191.965 107.267 193.521 106.117 194.668C104.967 195.815 103.407 196.461 101.78 196.463Z" fill="#E6E6E6"/>
<path d="M132.398 196.641H119.96C118.334 196.639 116.774 195.994 115.624 194.847C114.474 193.699 113.827 192.144 113.825 190.521V178.115C113.827 176.493 114.474 174.937 115.624 173.79C116.774 172.643 118.334 171.997 119.96 171.995H132.398C134.025 171.997 135.585 172.643 136.735 173.79C137.885 174.937 138.532 176.493 138.534 178.115V190.521C138.532 192.144 137.885 193.699 136.735 194.847C135.585 195.994 134.025 196.639 132.398 196.641Z" fill="#E6E6E6"/>
<path d="M89.1157 161.458C90.1046 161.458 90.9062 160.659 90.9062 159.673C90.9062 158.686 90.1046 157.887 89.1157 157.887C88.1268 157.887 87.3252 158.686 87.3252 159.673C87.3252 160.659 88.1268 161.458 89.1157 161.458Z" fill="#CCCCCC"/>
<path d="M95.5616 161.458C96.5504 161.458 97.3521 160.659 97.3521 159.673C97.3521 158.686 96.5504 157.887 95.5616 157.887C94.5727 157.887 93.771 158.686 93.771 159.673C93.771 160.659 94.5727 161.458 95.5616 161.458Z" fill="#E6E6E6"/>
<path d="M102.007 161.458C102.996 161.458 103.798 160.659 103.798 159.673C103.798 158.686 102.996 157.887 102.007 157.887C101.019 157.887 100.217 158.686 100.217 159.673C100.217 160.659 101.019 161.458 102.007 161.458Z" fill="#E6E6E6"/>
<path d="M138.386 200.392H52.8331C50.8823 200.389 49.0121 199.616 47.6326 198.24C46.2532 196.864 45.4773 194.998 45.475 193.053V174.87C45.4773 172.924 46.2532 171.058 47.6326 169.683C49.0121 168.307 50.8823 167.533 52.8331 167.531H138.386C140.337 167.533 142.207 168.307 143.586 169.683C144.966 171.058 145.742 172.924 145.744 174.87V193.053C145.742 194.998 144.966 196.864 143.586 198.24C142.207 199.616 140.337 200.389 138.386 200.392ZM52.8331 168.245C51.0722 168.247 49.384 168.946 48.1388 170.187C46.8937 171.429 46.1933 173.113 46.1912 174.87V193.053C46.1933 194.809 46.8937 196.493 48.1388 197.735C49.384 198.977 51.0722 199.675 52.8331 199.677H138.386C140.147 199.675 141.835 198.977 143.08 197.735C144.325 196.493 145.026 194.809 145.028 193.053V174.87C145.026 173.113 144.325 171.429 143.08 170.187C141.835 168.946 140.147 168.247 138.386 168.245H52.8331Z" fill="#E6E6E6"/>
<path d="M212.756 46.3221C212.042 46.4325 211.4 46.8164 210.965 47.3921C210.531 47.9678 210.339 48.6898 210.43 49.4046C210.451 49.5496 210.484 49.6927 210.528 49.8323L202.83 55.6774L204.429 60.6172L214.107 51.4729C214.673 51.2441 215.147 50.8348 215.455 50.3089C215.764 49.783 215.889 49.1701 215.811 48.5659C215.764 48.2224 215.649 47.8917 215.473 47.5925C215.298 47.2934 215.065 47.0316 214.788 46.8223C214.511 46.6129 214.195 46.46 213.859 46.3724C213.523 46.2847 213.172 46.2639 212.828 46.3112C212.804 46.3146 212.78 46.3182 212.756 46.3221Z" fill="#FFB6B6"/>
<path d="M159.65 73.4225C159.7 74.6328 160.221 75.7759 161.104 76.6081C161.986 77.4403 163.16 77.8957 164.374 77.8771L178.909 77.6552L197.289 69.1527C197.289 69.1527 203.283 64.0783 204.954 63.9588C206.625 63.8393 207.515 65.3902 207.136 63.9742C206.758 62.5582 206.257 61.6103 207.541 61.7425C208.825 61.8747 208.621 59.2617 208.905 58.2732C209.189 57.2848 205.283 53.7176 205.283 53.7176C205.283 53.7176 202.467 53.7719 202.283 54.1409C202.099 54.5098 202.74 55.4396 201.227 55.3998C199.714 55.3599 198.559 55.4235 198.512 56.1241C198.464 56.8248 198.575 57.3709 197.736 57.9136C196.898 58.4562 193.114 61.2537 193.114 61.2537L163.172 68.7277C162.134 68.987 161.216 69.5954 160.575 70.4506C159.933 71.3058 159.607 72.3553 159.65 73.4225Z" fill="#3F3D56"/>
<path d="M167.433 205.308H171.386L173.266 190.101H167.433V205.308Z" fill="#FFB6B6"/>
<path d="M166.143 202.608L172.458 202.232V204.93L178.461 209.066C178.758 209.27 178.981 209.564 179.099 209.904C179.216 210.243 179.222 210.612 179.115 210.955C179.007 211.298 178.793 211.598 178.503 211.811C178.212 212.024 177.861 212.139 177.501 212.139H169.983L168.687 209.47L168.181 212.139H165.347L166.143 202.608Z" fill="#2F2E41"/>
<path d="M174.034 107.881L176.183 94.6648L161.143 91.0929V104.784L174.034 107.881Z" fill="#FFB6B6"/>
<path d="M155.234 120.561L162.587 168.237C162.587 168.237 162.155 188.958 165.498 193.692L166.335 198.784H173.879C173.879 198.784 173.74 195.657 174.514 193.827C175.287 191.998 176.362 193.21 175.287 191.532C174.213 189.855 174.098 190.04 174.514 188.697C174.929 187.354 175.172 126.463 175.172 126.463L155.234 120.561Z" fill="#2F2E41"/>
<path d="M159.713 181.893L162.003 185.106L175.518 177.824L172.138 173.081L159.713 181.893Z" fill="#FFB6B6"/>
<path d="M161.171 179.28L165.138 184.195L162.933 185.759L163.033 193.036C163.038 193.395 162.927 193.747 162.718 194.039C162.508 194.332 162.21 194.55 161.868 194.661C161.525 194.773 161.156 194.773 160.814 194.66C160.472 194.548 160.174 194.329 159.966 194.036L155.609 187.925L157.039 185.324L154.565 186.46L152.922 184.156L161.171 179.28Z" fill="#2F2E41"/>
<path d="M160.426 96.8079L160.324 102.339C160.324 102.339 146.731 114.237 156.981 128.74C156.981 128.74 158.272 132.915 160.065 132.721C161.859 132.526 162.772 133.524 162.315 134.454C161.859 135.384 179.284 146.696 179.284 146.696C179.284 146.696 167.799 171.953 165.082 177.532L166.872 183.247C166.872 183.247 165.924 185.457 167.383 184.62C168.842 183.783 168.124 183.668 169.736 183.368C171.348 183.068 173.336 182.379 173.237 182.009C173.139 181.639 193.286 150.548 193.286 150.548C193.286 150.548 198.113 145.426 194.579 139.423C194.088 139.313 194.075 139.423 194.075 139.423L176.797 119.798L174.75 106.809L160.426 96.8079Z" fill="#2F2E41"/>
<path d="M175.97 61.3484L167.266 57.2799L164.661 61.8021C164.661 61.8021 157.663 71.7628 157.561 78.9487C157.46 86.1346 158.702 88.2715 158.702 88.2715C158.702 88.2715 155.685 90.5215 157.193 91.8968C158.702 93.2721 162.042 93.8655 159.476 94.4617C156.911 95.058 157.561 101.094 160.426 102.166C163.291 103.237 178.677 103.228 178.677 103.228C178.538 102.76 178.528 102.264 178.647 101.79C178.766 101.317 179.01 100.884 179.353 100.537C180.546 99.3442 181.62 100.2 180.546 98.3433C179.472 96.4867 177.681 97.5583 179.114 95.058C180.546 92.5577 180.546 91.8105 180.546 91.8105C180.546 91.8105 184.034 85.8094 179.067 80.2539C174.1 74.6984 179.025 79.8732 179.025 79.8732L175.473 68.0019L175.97 61.3484Z" fill="#3F3D56"/>
<path d="M211.229 96.4507H198.791C197.164 96.4489 195.605 95.8036 194.455 94.6562C193.304 93.5089 192.657 91.9534 192.655 90.3308V77.9249C192.657 76.3023 193.304 74.7468 194.455 73.5995C195.605 72.4521 197.164 71.8068 198.791 71.805H211.229C212.856 71.8068 214.415 72.4521 215.565 73.5995C216.716 74.7468 217.363 76.3023 217.365 77.9249V90.3308C217.363 91.9534 216.716 93.5089 215.565 94.6562C214.415 95.8036 212.856 96.4489 211.229 96.4507Z" fill="#F06E33"/>
<path d="M217.675 49.3023H205.237C203.61 49.3005 202.051 48.6551 200.9 47.5078C199.75 46.3605 199.103 44.8049 199.101 43.1824V30.7765C199.103 29.1539 199.75 27.5983 200.9 26.451C202.051 25.3037 203.61 24.6583 205.237 24.6565H217.675C219.302 24.6583 220.861 25.3037 222.011 26.451C223.162 27.5983 223.809 29.1539 223.81 30.7765V43.1824C223.809 44.8049 223.162 46.3605 222.011 47.5078C220.861 48.6551 219.302 49.3005 217.675 49.3023Z" fill="#F06E33"/>
<path d="M184.017 56.6162L184.024 56.6153C184.426 56.5678 184.792 56.3632 185.042 56.0465C185.292 55.7297 185.406 55.3268 185.358 54.9263L184.362 46.4992C184.185 44.9892 183.705 43.5301 182.951 42.2088C181.476 39.6306 179.061 37.7196 176.208 36.874C174.736 36.4393 173.19 36.3064 171.665 36.4835C165.424 37.2078 163.462 38.9554 161.68 49.0655C159.899 59.1756 162.678 57.5055 162.678 57.5055C162.702 57.7086 162.767 57.9049 162.868 58.0826C163.067 58.4292 163.392 58.6858 163.776 58.7988C163.973 58.8566 164.18 58.8742 164.384 58.8508C172.007 59.1406 179.717 59.5129 184.018 56.6161L184.017 56.6162Z" fill="#2F2E41"/>
<path d="M167.567 45.5447C166.947 47.0779 166.796 48.76 167.134 50.3786C167.472 51.9972 168.283 53.4797 169.464 54.6388C170.646 55.7979 172.146 56.5817 173.774 56.8912C175.403 57.2007 177.086 57.0219 178.613 56.3776C179.624 55.9544 180.541 55.3353 181.31 54.5562C182.08 53.7771 182.687 52.8533 183.096 51.8386C183.714 50.3063 183.864 48.6256 183.526 47.0086C183.188 45.3915 182.378 43.9104 181.197 42.7521C180.017 41.5937 178.519 40.81 176.892 40.4996C175.266 40.1892 173.583 40.3662 172.058 41.0081C171.045 41.4303 170.127 42.0487 169.356 42.8275C168.586 43.6063 167.977 44.5297 167.567 45.5447Z" fill="#FFB6B6"/>
<path d="M187.123 46.8697C186.982 45.6755 186.603 44.5216 186.007 43.4765C185.336 40.752 184.006 38.4386 180.675 39.2586C179.518 38.9174 178.304 38.8119 177.105 38.9483L175.413 39.1388C175.394 39.141 175.375 39.1431 175.356 39.1454C172.991 39.4251 170.835 40.6303 169.361 42.4958C167.887 44.3613 167.217 46.7344 167.497 49.093L167.517 49.2618L171.096 48.8553L171.914 45.3128L172.56 48.6897L174.409 48.4804L174.821 46.6932L175.148 48.3958C178.343 50.1835 182.446 49.4371 187.141 47.039L187.123 46.8697Z" fill="#2F2E41"/>
<path d="M177.591 57.103C177.679 57.3688 177.691 57.654 177.625 57.9261C177.592 58.0653 177.539 58.1992 177.469 58.3239C177.409 58.4301 177.337 58.5289 177.253 58.6182C177.006 58.8819 176.673 59.0491 176.313 59.0898C176.291 59.0922 176.268 59.0942 176.246 59.0958C176.223 59.0974 176.201 59.0985 176.178 59.099C176.155 59.0998 176.132 59.1 176.11 59.0995C176.087 59.099 176.064 59.0981 176.041 59.0968L174.744 59.016L172.554 55.4951L172.958 58.9086L167.063 58.5512L165.35 44.066L175.033 42.9737L174.826 43.279C174.142 44.3024 173.754 45.4942 173.706 46.7232C173.662 47.9673 173.833 49.2097 174.211 50.3962C174.583 51.598 175.071 52.7612 175.666 53.8701C176.188 54.853 176.767 55.8051 177.399 56.7217C177.481 56.8392 177.545 56.9675 177.591 57.103Z" fill="#2F2E41"/>
<path d="M200.383 70.4755C199.711 70.7399 199.169 71.2553 198.872 71.9123C198.575 72.5692 198.547 73.3157 198.794 73.993C198.846 74.1299 198.91 74.2622 198.984 74.3886L192.763 81.7799L195.413 86.2477L202.837 75.2037C203.338 74.8563 203.711 74.353 203.896 73.7723C204.08 73.1916 204.067 72.5663 203.858 71.9939C203.736 71.6693 203.551 71.3718 203.314 71.1185C203.077 70.8652 202.792 70.661 202.475 70.5176C202.159 70.3742 201.817 70.2943 201.47 70.2825C201.123 70.2708 200.776 70.3274 200.451 70.4491C200.428 70.4576 200.406 70.4664 200.383 70.4755Z" fill="#FFB6B6"/>
<path d="M167.805 68.9929C167.178 69.2753 166.62 69.689 166.168 70.2058C165.716 70.7227 165.381 71.3305 165.185 71.9881C164.99 72.6457 164.939 73.3375 165.035 74.0166C165.132 74.6956 165.374 75.346 165.745 75.9234L171.706 85.1994L185.672 97.7009C185.672 97.7009 197.132 89.4856 197.49 86.6281C197.848 83.7707 196.774 83.0563 197.848 83.7707C198.922 84.485 199.997 84.1279 199.638 83.7707C199.28 83.4135 199.421 83.391 199.709 82.8665C199.997 82.3419 201.071 79.8416 201.071 79.8416L197.266 76.0912C197.266 76.0912 193.193 78.0557 192.835 79.1273C192.476 80.1988 193.909 79.8416 192.476 80.1988C191.044 80.556 189.131 78.936 190.624 80.639C192.118 82.3419 191.995 83.0816 190.624 83.069C189.253 83.0563 186.747 86.6281 186.747 86.6281L173.495 70.3363C172.829 69.5169 171.909 68.9406 170.88 68.6976C169.85 68.4545 168.769 68.5584 167.805 68.9929Z" fill="#3F3D56"/>
<path d="M210.476 203.61C210.737 203.619 210.996 203.549 211.215 203.407C211.435 203.265 211.606 203.059 211.704 202.818C211.803 202.576 211.825 202.31 211.767 202.055C211.709 201.801 211.574 201.57 211.38 201.395C211.346 201.268 211.322 201.176 211.289 201.049C211.533 200.413 211.962 199.864 212.521 199.472C213.08 199.081 213.743 198.865 214.426 198.852C215.109 198.839 215.78 199.03 216.354 199.4C216.927 199.77 217.377 200.302 217.645 200.929C219.191 204.446 221.183 208.083 220.247 211.981C226.547 198.327 224.199 181.439 214.585 169.905C211.945 168.486 209.791 165.942 209.209 162.97C210.513 163.397 212.124 162.327 211.133 160.97C210.704 160.452 210.272 159.939 209.843 159.421C214.731 154.128 220.694 162.316 215.326 169.448C217.125 171.655 218.688 174.043 219.99 176.574C219.669 173.877 219.995 171.142 220.941 168.594C221.901 166.219 223.725 164.21 225.328 162.149C227.277 159.639 231.349 160.75 231.645 163.909C229.829 164.523 229.618 167.149 231.704 167.488C231.215 173.376 227.413 178.819 222.131 181.449C224.143 186.915 224.964 192.745 224.54 198.553C225.412 191.762 232.694 190.047 237.769 187.303C238.092 187.093 238.469 186.98 238.855 186.979C239.241 186.979 239.618 187.09 239.942 187.3C240.265 187.51 240.52 187.809 240.676 188.161C240.832 188.513 240.881 188.902 240.819 189.282C240.118 189.574 239.447 189.935 238.817 190.36C238.522 190.562 238.297 190.85 238.173 191.184C238.048 191.519 238.031 191.884 238.122 192.229C238.214 192.574 238.41 192.883 238.684 193.112C238.958 193.341 239.297 193.481 239.653 193.511C237.143 199.883 230.536 204.208 223.708 204.249C223.079 207.099 222.154 209.876 220.95 212.536L210.816 212.632C210.779 212.52 210.745 212.405 210.711 212.293C211.65 212.343 212.591 212.278 213.513 212.099C211.004 209.192 209.071 207.715 210.476 203.61Z" fill="#F2F2F2"/>
<path d="M1.88613e-06 212.575C-0.000165015 212.631 0.0107463 212.686 0.0321042 212.738C0.0534621 212.789 0.0848484 212.836 0.124455 212.876C0.164062 212.915 0.211106 212.947 0.262886 212.968C0.314665 212.989 0.370157 213 0.426168 213H256.574C256.687 213 256.795 212.955 256.875 212.875C256.955 212.796 257 212.688 257 212.575C257 212.462 256.955 212.354 256.875 212.274C256.795 212.195 256.687 212.15 256.574 212.15H0.426146C0.370138 212.15 0.314651 212.161 0.262875 212.182C0.211098 212.203 0.164053 212.235 0.12445 212.274C0.0848456 212.314 0.0534614 212.36 0.0321042 212.412C0.0107469 212.464 -0.0001631 212.519 1.88613e-06 212.575Z" fill="#CCCCCC"/>
<path d="M63.7211 10.3845H54.0523C53.5775 10.3845 53.122 10.1963 52.7863 9.86137C52.4505 9.52645 52.2618 9.07219 52.2618 8.59853C52.2618 8.12488 52.4505 7.67062 52.7863 7.33569C53.122 7.00076 53.5775 6.81261 54.0523 6.81261H63.7211C64.196 6.81261 64.6514 7.00076 64.9872 7.33569C65.323 7.67062 65.5116 8.12488 65.5116 8.59853C65.5116 9.07219 65.323 9.52645 64.9872 9.86137C64.6514 10.1963 64.196 10.3845 63.7211 10.3845Z" fill="#E6E6E6"/>
<path d="M127.105 10.2059C127.995 10.2059 128.717 9.48625 128.717 8.59854C128.717 7.71084 127.995 6.99121 127.105 6.99121C126.215 6.99121 125.494 7.71084 125.494 8.59854C125.494 9.48625 126.215 10.2059 127.105 10.2059Z" fill="#E6E6E6"/>
<path d="M132.119 10.2059C133.009 10.2059 133.73 9.48625 133.73 8.59854C133.73 7.71084 133.009 6.99121 132.119 6.99121C131.229 6.99121 130.507 7.71084 130.507 8.59854C130.507 9.48625 131.229 10.2059 132.119 10.2059Z" fill="#E6E6E6"/>
<path d="M137.132 10.2059C138.022 10.2059 138.744 9.48625 138.744 8.59854C138.744 7.71084 138.022 6.99121 137.132 6.99121C136.242 6.99121 135.521 7.71084 135.521 8.59854C135.521 9.48625 136.242 10.2059 137.132 10.2059Z" fill="#E6E6E6"/>
<path d="M75.0014 70.213C77.3747 70.213 79.2986 68.294 79.2986 65.9268C79.2986 63.5596 77.3747 61.6405 75.0014 61.6405C72.6281 61.6405 70.7041 63.5596 70.7041 65.9268C70.7041 68.294 72.6281 70.213 75.0014 70.213Z" fill="#CCCCCC"/>
<path d="M106.156 178.797C108.53 178.797 110.454 176.878 110.454 174.511C110.454 172.144 108.53 170.225 106.156 170.225C103.783 170.225 101.859 172.144 101.859 174.511C101.859 176.878 103.783 178.797 106.156 178.797Z" fill="#CCCCCC"/>
<path d="M71.1626 124.49H58.7248C57.0031 124.488 55.3525 123.805 54.1351 122.59C52.9177 121.376 52.2329 119.73 52.231 118.013V105.607C52.2329 103.889 52.9177 102.243 54.1351 101.029C55.3525 99.8145 57.0031 99.1315 58.7248 99.1296H71.1626C72.8842 99.1315 74.5348 99.8145 75.7522 101.029C76.9696 102.243 77.6544 103.889 77.6563 105.607V118.013C77.6544 119.73 76.9696 121.376 75.7522 122.59C74.5348 123.805 72.8842 124.488 71.1626 124.49ZM58.7248 99.8439C57.193 99.8457 55.7245 100.453 54.6414 101.534C53.5582 102.614 52.949 104.079 52.9472 105.607V118.013C52.9489 119.54 53.5582 121.005 54.6413 122.086C55.7244 123.166 57.193 123.774 58.7248 123.775H71.1626C72.6943 123.774 74.1629 123.166 75.246 122.086C76.3291 121.005 76.9384 119.54 76.9401 118.013V105.607C76.9384 104.079 76.3291 102.614 75.246 101.534C74.1628 100.453 72.6943 99.8457 71.1626 99.8439L58.7248 99.8439Z" fill="#E6E6E6"/>
<path d="M101.78 124.668H89.3426C87.6209 124.666 85.9703 123.983 84.753 122.769C83.5356 121.555 82.8508 119.908 82.8488 118.191V105.785C82.8508 104.068 83.5356 102.422 84.753 101.207C85.9703 99.9931 87.6209 99.3101 89.3426 99.3082H101.78C103.502 99.3101 105.153 99.9931 106.37 101.207C107.587 102.422 108.272 104.068 108.274 105.785V118.191C108.272 119.908 107.587 121.555 106.37 122.769C105.153 123.983 103.502 124.666 101.78 124.668ZM89.3426 100.023C87.8108 100.024 86.3423 100.632 85.2592 101.712C84.1761 102.793 83.5668 104.257 83.565 105.785V118.191C83.5668 119.719 84.176 121.184 85.2591 122.264C86.3423 123.345 87.8108 123.952 89.3426 123.954H101.78C103.312 123.952 104.781 123.345 105.864 122.264C106.947 121.184 107.556 119.719 107.558 118.191V105.785C107.556 104.257 106.947 102.793 105.864 101.712C104.781 100.632 103.312 100.024 101.78 100.023L89.3426 100.023Z" fill="#E6E6E6"/>
<path d="M132.398 124.847H119.96C118.239 124.845 116.588 124.162 115.371 122.948C114.153 121.733 113.469 120.087 113.467 118.37V105.964C113.469 104.247 114.153 102.6 115.371 101.386C116.588 100.172 118.239 99.4887 119.96 99.4867H132.398C134.12 99.4887 135.77 100.172 136.988 101.386C138.205 102.6 138.89 104.247 138.892 105.964V118.37C138.89 120.087 138.205 121.733 136.988 122.948C135.77 124.162 134.12 124.845 132.398 124.847ZM119.96 100.201C118.429 100.203 116.96 100.811 115.877 101.891C114.794 102.971 114.185 104.436 114.183 105.964V118.37C114.185 119.898 114.794 121.362 115.877 122.443C116.96 123.523 118.429 124.131 119.96 124.133H132.398C133.93 124.131 135.399 123.523 136.482 122.443C137.565 121.362 138.174 119.898 138.176 118.37V105.964C138.174 104.436 137.565 102.971 136.482 101.891C135.399 100.811 133.93 100.203 132.398 100.201L119.96 100.201Z" fill="#E6E6E6"/>
<path d="M106.156 106.289C108.53 106.289 110.454 104.37 110.454 102.002C110.454 99.6353 108.53 97.7163 106.156 97.7163C103.783 97.7163 101.859 99.6353 101.859 102.002C101.859 104.37 103.783 106.289 106.156 106.289Z" fill="#CCCCCC"/>
</g>
<defs>
<clipPath id="clip0_4_32">
<rect width="257" height="213" fill="white"/>
</clipPath>
</defs>
</svg>
