<svg width="27" height="27" viewBox="0 0 27 27" fill="none" xmlns="http://www.w3.org/2000/svg">
<path d="M21.3921 20.7955C21.4313 20.8346 21.4623 20.8811 21.4835 20.9323C21.5047 20.9835 21.5156 21.0384 21.5156 21.0938C21.5156 21.1492 21.5047 21.204 21.4835 21.2552C21.4623 21.3064 21.4312 21.3529 21.392 21.3921C21.3529 21.4312 21.3063 21.4623 21.2552 21.4835C21.204 21.5047 21.1491 21.5156 21.0937 21.5156C21.0383 21.5156 20.9835 21.5047 20.9323 21.4835C20.8811 21.4623 20.8346 21.4312 20.7954 21.392L13.5 14.0967L6.20459 21.392C6.12548 21.4711 6.01818 21.5156 5.90629 21.5156C5.79441 21.5156 5.6871 21.4712 5.60798 21.3921C5.52886 21.313 5.4844 21.2057 5.48439 21.0938C5.48438 20.9819 5.52882 20.8746 5.60793 20.7955L12.9034 13.5L5.60793 6.20452C5.52882 6.1254 5.48438 6.01809 5.48439 5.9062C5.4844 5.8508 5.49531 5.79595 5.51652 5.74477C5.53772 5.69358 5.5688 5.64708 5.60798 5.60791C5.64715 5.56874 5.69366 5.53767 5.74485 5.51647C5.79603 5.49528 5.85089 5.48437 5.90629 5.48438C6.01818 5.48438 6.12548 5.52884 6.20459 5.60796L13.5 12.9033L20.7954 5.60796C20.8346 5.56879 20.8811 5.53771 20.9323 5.5165C20.9835 5.4953 21.0383 5.48438 21.0937 5.48438C21.1491 5.48437 21.204 5.49528 21.2552 5.51647C21.3063 5.53767 21.3529 5.56874 21.392 5.60791C21.4312 5.64708 21.4623 5.69358 21.4835 5.74477C21.5047 5.79595 21.5156 5.8508 21.5156 5.9062C21.5156 5.9616 21.5047 6.01646 21.4835 6.06765C21.4623 6.11883 21.4313 6.16534 21.3921 6.20452L14.0966 13.5L21.3921 20.7955Z" fill="#777777"/>
</svg>
